<mxfile host="app.diagrams.net" modified="2023-12-22T09:47:22.476Z" agent="Mozilla/5.0 (Windows NT 10.0; Win64; x64) AppleWebKit/537.36 (KHTML, like Gecko) Chrome/120.0.0.0 Safari/537.36" etag="CyItKsLLM0fSLJmuMHof" version="22.1.11" type="device">
  <diagram id="cwIRp_KXKwPp0aOuLG4Q" name="Страница — 1">
    <mxGraphModel dx="1434" dy="841" grid="1" gridSize="10" guides="1" tooltips="1" connect="1" arrows="1" fold="1" page="1" pageScale="1" pageWidth="3300" pageHeight="4681" math="0" shadow="0">
      <root>
        <mxCell id="0" />
        <mxCell id="1" parent="0" />
        <mxCell id="tZ8Ya-4mFZi0hfj2rR8u-3" value="" style="rounded=1;whiteSpace=wrap;html=1;dashed=1;" parent="1" vertex="1">
          <mxGeometry x="360" y="805" width="520" height="605" as="geometry" />
        </mxCell>
        <mxCell id="YRH8JHqfD0DxMbFeHIv--7" value="" style="rounded=0;whiteSpace=wrap;html=1;dashed=1;strokeWidth=1;perimeterSpacing=0;" vertex="1" parent="1">
          <mxGeometry x="400" y="830" width="450" height="260" as="geometry" />
        </mxCell>
        <mxCell id="tZ8Ya-4mFZi0hfj2rR8u-40" style="edgeStyle=orthogonalEdgeStyle;rounded=0;orthogonalLoop=1;jettySize=auto;html=1;entryX=1;entryY=0.5;entryDx=0;entryDy=0;" parent="1" source="tZ8Ya-4mFZi0hfj2rR8u-1" target="tZ8Ya-4mFZi0hfj2rR8u-3" edge="1">
          <mxGeometry relative="1" as="geometry">
            <Array as="points">
              <mxPoint x="1200" y="580" />
              <mxPoint x="1200" y="945" />
            </Array>
          </mxGeometry>
        </mxCell>
        <mxCell id="tZ8Ya-4mFZi0hfj2rR8u-1" value="" style="rounded=1;whiteSpace=wrap;html=1;dashed=1;" parent="1" vertex="1">
          <mxGeometry x="160" y="400" width="1010" height="360" as="geometry" />
        </mxCell>
        <mxCell id="tZ8Ya-4mFZi0hfj2rR8u-41" style="edgeStyle=orthogonalEdgeStyle;rounded=0;orthogonalLoop=1;jettySize=auto;html=1;entryX=0;entryY=0.5;entryDx=0;entryDy=0;" parent="1" source="tZ8Ya-4mFZi0hfj2rR8u-2" target="tZ8Ya-4mFZi0hfj2rR8u-3" edge="1">
          <mxGeometry relative="1" as="geometry">
            <Array as="points">
              <mxPoint x="120" y="185" />
              <mxPoint x="120" y="945" />
            </Array>
          </mxGeometry>
        </mxCell>
        <mxCell id="tZ8Ya-4mFZi0hfj2rR8u-2" value="" style="rounded=1;whiteSpace=wrap;html=1;dashed=1;" parent="1" vertex="1">
          <mxGeometry x="300" y="40" width="660" height="290" as="geometry" />
        </mxCell>
        <mxCell id="tZ8Ya-4mFZi0hfj2rR8u-4" value="View Model" style="rounded=0;whiteSpace=wrap;html=1;" parent="1" vertex="1">
          <mxGeometry x="430" y="880" width="100" height="110" as="geometry" />
        </mxCell>
        <mxCell id="tZ8Ya-4mFZi0hfj2rR8u-5" value="&lt;font style=&quot;vertical-align: inherit;&quot;&gt;&lt;font style=&quot;vertical-align: inherit;&quot;&gt;Аpp&lt;br&gt;&lt;/font&gt;&lt;/font&gt;" style="text;html=1;strokeColor=none;fillColor=none;align=center;verticalAlign=middle;whiteSpace=wrap;rounded=0;fontStyle=1;fontSize=13;" parent="1" vertex="1">
          <mxGeometry x="370" y="1087.5" width="60" height="40" as="geometry" />
        </mxCell>
        <mxCell id="tZ8Ya-4mFZi0hfj2rR8u-8" value="domain" style="text;html=1;strokeColor=none;fillColor=none;align=center;verticalAlign=middle;whiteSpace=wrap;rounded=0;fontStyle=1;fontSize=13;" parent="1" vertex="1">
          <mxGeometry x="280" y="430" width="80" height="30" as="geometry" />
        </mxCell>
        <mxCell id="tZ8Ya-4mFZi0hfj2rR8u-9" value="data" style="text;html=1;strokeColor=none;fillColor=none;align=center;verticalAlign=middle;whiteSpace=wrap;rounded=0;fontStyle=1;fontSize=13;" parent="1" vertex="1">
          <mxGeometry x="320" y="60" width="60" height="30" as="geometry" />
        </mxCell>
        <mxCell id="tZ8Ya-4mFZi0hfj2rR8u-10" value="SaveStudentTable&lt;br&gt;UseCase" style="ellipse;whiteSpace=wrap;html=1;" parent="1" vertex="1">
          <mxGeometry x="180" y="670" width="120" height="80" as="geometry" />
        </mxCell>
        <mxCell id="tZ8Ya-4mFZi0hfj2rR8u-11" value="UploadStudentTable&lt;br&gt;UseCase" style="ellipse;whiteSpace=wrap;html=1;" parent="1" vertex="1">
          <mxGeometry x="320" y="670" width="120" height="80" as="geometry" />
        </mxCell>
        <mxCell id="tZ8Ya-4mFZi0hfj2rR8u-12" value="AddStudentTo StudentTable&lt;br&gt;UseCase" style="ellipse;whiteSpace=wrap;html=1;" parent="1" vertex="1">
          <mxGeometry x="450" y="660" width="120" height="80" as="geometry" />
        </mxCell>
        <mxCell id="tZ8Ya-4mFZi0hfj2rR8u-13" value="RemoveStudentFrom StudentTable&lt;br&gt;UseCase" style="ellipse;whiteSpace=wrap;html=1;" parent="1" vertex="1">
          <mxGeometry x="590" y="660" width="140" height="80" as="geometry" />
        </mxCell>
        <mxCell id="tZ8Ya-4mFZi0hfj2rR8u-14" value="editStudentData fromTable&lt;br&gt;UseCase" style="ellipse;whiteSpace=wrap;html=1;" parent="1" vertex="1">
          <mxGeometry x="1020" y="660" width="120" height="80" as="geometry" />
        </mxCell>
        <mxCell id="tZ8Ya-4mFZi0hfj2rR8u-17" value="" style="endArrow=classic;html=1;rounded=0;exitX=0.5;exitY=1;exitDx=0;exitDy=0;entryX=0;entryY=0.75;entryDx=0;entryDy=0;" parent="1" source="tZ8Ya-4mFZi0hfj2rR8u-10" target="tZ8Ya-4mFZi0hfj2rR8u-4" edge="1">
          <mxGeometry width="50" height="50" relative="1" as="geometry">
            <mxPoint x="700" y="750" as="sourcePoint" />
            <mxPoint x="750" y="700" as="targetPoint" />
          </mxGeometry>
        </mxCell>
        <mxCell id="tZ8Ya-4mFZi0hfj2rR8u-18" value="" style="endArrow=classic;html=1;rounded=0;exitX=0.5;exitY=1;exitDx=0;exitDy=0;entryX=0;entryY=0.5;entryDx=0;entryDy=0;" parent="1" source="tZ8Ya-4mFZi0hfj2rR8u-11" target="tZ8Ya-4mFZi0hfj2rR8u-4" edge="1">
          <mxGeometry width="50" height="50" relative="1" as="geometry">
            <mxPoint x="700" y="750" as="sourcePoint" />
            <mxPoint x="750" y="700" as="targetPoint" />
          </mxGeometry>
        </mxCell>
        <mxCell id="tZ8Ya-4mFZi0hfj2rR8u-19" value="" style="endArrow=classic;html=1;rounded=0;exitX=0.5;exitY=1;exitDx=0;exitDy=0;entryX=0.25;entryY=0;entryDx=0;entryDy=0;" parent="1" source="tZ8Ya-4mFZi0hfj2rR8u-12" target="tZ8Ya-4mFZi0hfj2rR8u-4" edge="1">
          <mxGeometry width="50" height="50" relative="1" as="geometry">
            <mxPoint x="700" y="750" as="sourcePoint" />
            <mxPoint x="750" y="700" as="targetPoint" />
          </mxGeometry>
        </mxCell>
        <mxCell id="tZ8Ya-4mFZi0hfj2rR8u-20" value="" style="endArrow=classic;html=1;rounded=0;exitX=0.5;exitY=1;exitDx=0;exitDy=0;entryX=0.5;entryY=0;entryDx=0;entryDy=0;" parent="1" source="tZ8Ya-4mFZi0hfj2rR8u-13" target="tZ8Ya-4mFZi0hfj2rR8u-4" edge="1">
          <mxGeometry width="50" height="50" relative="1" as="geometry">
            <mxPoint x="700" y="750" as="sourcePoint" />
            <mxPoint x="750" y="700" as="targetPoint" />
          </mxGeometry>
        </mxCell>
        <mxCell id="tZ8Ya-4mFZi0hfj2rR8u-21" value="" style="endArrow=classic;html=1;rounded=0;exitX=0.5;exitY=1;exitDx=0;exitDy=0;entryX=0.989;entryY=0.212;entryDx=0;entryDy=0;entryPerimeter=0;" parent="1" source="tZ8Ya-4mFZi0hfj2rR8u-14" target="tZ8Ya-4mFZi0hfj2rR8u-4" edge="1">
          <mxGeometry width="50" height="50" relative="1" as="geometry">
            <mxPoint x="700" y="750" as="sourcePoint" />
            <mxPoint x="690" y="940" as="targetPoint" />
          </mxGeometry>
        </mxCell>
        <mxCell id="tZ8Ya-4mFZi0hfj2rR8u-26" style="edgeStyle=orthogonalEdgeStyle;rounded=0;orthogonalLoop=1;jettySize=auto;html=1;" parent="1" source="tZ8Ya-4mFZi0hfj2rR8u-24" target="tZ8Ya-4mFZi0hfj2rR8u-10" edge="1">
          <mxGeometry relative="1" as="geometry" />
        </mxCell>
        <mxCell id="tZ8Ya-4mFZi0hfj2rR8u-27" style="edgeStyle=orthogonalEdgeStyle;rounded=0;orthogonalLoop=1;jettySize=auto;html=1;" parent="1" source="tZ8Ya-4mFZi0hfj2rR8u-24" target="tZ8Ya-4mFZi0hfj2rR8u-11" edge="1">
          <mxGeometry relative="1" as="geometry" />
        </mxCell>
        <mxCell id="tZ8Ya-4mFZi0hfj2rR8u-24" value="UserRepository- interace" style="rounded=1;whiteSpace=wrap;html=1;" parent="1" vertex="1">
          <mxGeometry x="230" y="550" width="150" height="60" as="geometry" />
        </mxCell>
        <mxCell id="tZ8Ya-4mFZi0hfj2rR8u-28" value="Student model" style="rounded=1;whiteSpace=wrap;html=1;" parent="1" vertex="1">
          <mxGeometry x="1000" y="415" width="120" height="60" as="geometry" />
        </mxCell>
        <mxCell id="tZ8Ya-4mFZi0hfj2rR8u-29" value="SyudentRepositoryImpl-&lt;br&gt;implementation" style="rounded=1;whiteSpace=wrap;html=1;" parent="1" vertex="1">
          <mxGeometry x="340" y="110" width="140" height="60" as="geometry" />
        </mxCell>
        <mxCell id="tZ8Ya-4mFZi0hfj2rR8u-38" style="edgeStyle=orthogonalEdgeStyle;rounded=0;orthogonalLoop=1;jettySize=auto;html=1;entryX=1;entryY=0.5;entryDx=0;entryDy=0;" parent="1" source="tZ8Ya-4mFZi0hfj2rR8u-30" target="tZ8Ya-4mFZi0hfj2rR8u-29" edge="1">
          <mxGeometry relative="1" as="geometry" />
        </mxCell>
        <mxCell id="tZ8Ya-4mFZi0hfj2rR8u-30" value="" style="rounded=1;whiteSpace=wrap;html=1;dashed=1;" parent="1" vertex="1">
          <mxGeometry x="530" y="70" width="390" height="230" as="geometry" />
        </mxCell>
        <mxCell id="tZ8Ya-4mFZi0hfj2rR8u-32" value="storage" style="text;html=1;strokeColor=none;fillColor=none;align=center;verticalAlign=middle;whiteSpace=wrap;rounded=0;fontStyle=1;fontSize=13;" parent="1" vertex="1">
          <mxGeometry x="545" y="80" width="60" height="30" as="geometry" />
        </mxCell>
        <mxCell id="tZ8Ya-4mFZi0hfj2rR8u-33" value="StudentStorage - interface" style="rounded=1;whiteSpace=wrap;html=1;" parent="1" vertex="1">
          <mxGeometry x="545" y="120" width="165" height="60" as="geometry" />
        </mxCell>
        <mxCell id="tZ8Ya-4mFZi0hfj2rR8u-35" value="Student model" style="rounded=1;whiteSpace=wrap;html=1;" parent="1" vertex="1">
          <mxGeometry x="770" y="90" width="120" height="60" as="geometry" />
        </mxCell>
        <mxCell id="tZ8Ya-4mFZi0hfj2rR8u-36" value="SharedPrefsStudentStorage -implementation" style="rounded=1;whiteSpace=wrap;html=1;" parent="1" vertex="1">
          <mxGeometry x="545" y="200" width="165" height="60" as="geometry" />
        </mxCell>
        <mxCell id="tZ8Ya-4mFZi0hfj2rR8u-39" style="edgeStyle=orthogonalEdgeStyle;rounded=0;orthogonalLoop=1;jettySize=auto;html=1;exitX=1;exitY=0.25;exitDx=0;exitDy=0;entryX=1;entryY=0.345;entryDx=0;entryDy=0;entryPerimeter=0;" parent="1" source="tZ8Ya-4mFZi0hfj2rR8u-1" target="tZ8Ya-4mFZi0hfj2rR8u-2" edge="1">
          <mxGeometry relative="1" as="geometry">
            <Array as="points">
              <mxPoint x="1220" y="490" />
              <mxPoint x="1220" y="140" />
            </Array>
          </mxGeometry>
        </mxCell>
        <mxCell id="tZ8Ya-4mFZi0hfj2rR8u-42" value="CloseStudent editPanel&lt;br&gt;UseCase" style="ellipse;whiteSpace=wrap;html=1;" parent="1" vertex="1">
          <mxGeometry x="750" y="660" width="120" height="80" as="geometry" />
        </mxCell>
        <mxCell id="tZ8Ya-4mFZi0hfj2rR8u-43" value="OpenAdd studentPanel&lt;br&gt;UseCase" style="ellipse;whiteSpace=wrap;html=1;" parent="1" vertex="1">
          <mxGeometry x="890" y="660" width="120" height="80" as="geometry" />
        </mxCell>
        <mxCell id="tZ8Ya-4mFZi0hfj2rR8u-44" value="" style="endArrow=classic;html=1;rounded=0;entryX=0.75;entryY=0;entryDx=0;entryDy=0;" parent="1" source="tZ8Ya-4mFZi0hfj2rR8u-42" target="tZ8Ya-4mFZi0hfj2rR8u-4" edge="1">
          <mxGeometry width="50" height="50" relative="1" as="geometry">
            <mxPoint x="780" y="610" as="sourcePoint" />
            <mxPoint x="830" y="560" as="targetPoint" />
          </mxGeometry>
        </mxCell>
        <mxCell id="tZ8Ya-4mFZi0hfj2rR8u-45" value="" style="endArrow=classic;html=1;rounded=0;exitX=0.5;exitY=1;exitDx=0;exitDy=0;entryX=1;entryY=0;entryDx=0;entryDy=0;" parent="1" source="tZ8Ya-4mFZi0hfj2rR8u-43" target="tZ8Ya-4mFZi0hfj2rR8u-4" edge="1">
          <mxGeometry width="50" height="50" relative="1" as="geometry">
            <mxPoint x="780" y="610" as="sourcePoint" />
            <mxPoint x="830" y="560" as="targetPoint" />
          </mxGeometry>
        </mxCell>
        <mxCell id="cGKRp5_Mn36SzZ9TuBNz-1" value="Activity" style="rounded=0;whiteSpace=wrap;html=1;" parent="1" vertex="1">
          <mxGeometry x="710" y="870" width="120" height="180" as="geometry" />
        </mxCell>
        <mxCell id="cGKRp5_Mn36SzZ9TuBNz-2" value="" style="endArrow=classic;html=1;rounded=0;exitX=1;exitY=0.75;exitDx=0;exitDy=0;" parent="1" source="tZ8Ya-4mFZi0hfj2rR8u-4" target="cGKRp5_Mn36SzZ9TuBNz-1" edge="1">
          <mxGeometry width="50" height="50" relative="1" as="geometry">
            <mxPoint x="610" y="860" as="sourcePoint" />
            <mxPoint x="660" y="810" as="targetPoint" />
          </mxGeometry>
        </mxCell>
        <mxCell id="YRH8JHqfD0DxMbFeHIv--2" value="" style="rounded=0;whiteSpace=wrap;html=1;dashed=1;" vertex="1" parent="1">
          <mxGeometry x="390" y="1220" width="180" height="150" as="geometry" />
        </mxCell>
        <mxCell id="YRH8JHqfD0DxMbFeHIv--3" value="&lt;font style=&quot;vertical-align: inherit;&quot;&gt;&lt;font style=&quot;vertical-align: inherit;&quot;&gt;АppModule&lt;/font&gt;&lt;/font&gt;" style="rounded=0;whiteSpace=wrap;html=1;" vertex="1" parent="1">
          <mxGeometry x="397.5" y="1230" width="85" height="30" as="geometry" />
        </mxCell>
        <mxCell id="YRH8JHqfD0DxMbFeHIv--4" value="&lt;font style=&quot;vertical-align: inherit;&quot;&gt;&lt;font style=&quot;vertical-align: inherit;&quot;&gt;&lt;font style=&quot;vertical-align: inherit;&quot;&gt;&lt;font style=&quot;vertical-align: inherit;&quot;&gt;DomainModule&lt;/font&gt;&lt;/font&gt;&lt;/font&gt;&lt;/font&gt;" style="rounded=0;whiteSpace=wrap;html=1;" vertex="1" parent="1">
          <mxGeometry x="397.5" y="1270" width="85" height="30" as="geometry" />
        </mxCell>
        <mxCell id="YRH8JHqfD0DxMbFeHIv--5" value="&lt;font style=&quot;vertical-align: inherit;&quot;&gt;&lt;font style=&quot;vertical-align: inherit;&quot;&gt;&lt;font style=&quot;vertical-align: inherit;&quot;&gt;&lt;font style=&quot;vertical-align: inherit;&quot;&gt;DataModule&lt;/font&gt;&lt;/font&gt;&lt;/font&gt;&lt;/font&gt;" style="rounded=0;whiteSpace=wrap;html=1;" vertex="1" parent="1">
          <mxGeometry x="397.5" y="1310" width="85" height="30" as="geometry" />
        </mxCell>
        <mxCell id="YRH8JHqfD0DxMbFeHIv--6" value="&lt;b&gt;&lt;font style=&quot;vertical-align: inherit;&quot;&gt;&lt;font style=&quot;vertical-align: inherit;&quot;&gt;DI&lt;/font&gt;&lt;/font&gt;&lt;/b&gt;" style="text;html=1;strokeColor=none;fillColor=none;align=center;verticalAlign=middle;whiteSpace=wrap;rounded=0;" vertex="1" parent="1">
          <mxGeometry x="510" y="1330" width="60" height="30" as="geometry" />
        </mxCell>
        <mxCell id="YRH8JHqfD0DxMbFeHIv--8" value="&lt;font style=&quot;vertical-align: inherit;&quot;&gt;&lt;font style=&quot;vertical-align: inherit;&quot;&gt;presentation&lt;br&gt;&lt;/font&gt;&lt;/font&gt;" style="text;html=1;strokeColor=none;fillColor=none;align=center;verticalAlign=middle;whiteSpace=wrap;rounded=0;fontStyle=1;fontSize=13;" vertex="1" parent="1">
          <mxGeometry x="420" y="1030" width="90" height="40" as="geometry" />
        </mxCell>
      </root>
    </mxGraphModel>
  </diagram>
</mxfile>
